<svg width="100" height="100" viewBox="0 0 100 100" fill="none" xmlns="http://www.w3.org/2000/svg">
<g clip-path="url(#clip0_3_16273)">
<path d="M4 20H32V73H4V20Z" fill="#1F191F"/>
<path d="M29 32H79V44H29V32Z" fill="#1F191F"/>
<path d="M31 19L56.9808 40H5.01924L31 19Z" fill="#1F191F"/>
<path d="M96.4286 42.4107H84.375V29.7322C84.375 27.7567 82.779 26.1607 80.8036 26.1607H45.6473L32.5558 13.6384C32.3892 13.4825 32.1701 13.3948 31.942 13.3929H3.57143C1.59598 13.3929 0 14.9889 0 16.9643V83.0357C0 85.0112 1.59598 86.6072 3.57143 86.6072H81.4732C82.9241 86.6072 84.2411 85.7255 84.7879 84.375L99.7433 47.3215C99.9107 46.8973 100 46.4398 100 45.9822C100 44.0067 98.404 42.4107 96.4286 42.4107ZM76.3393 42.4107H19.4196C17.9688 42.4107 16.6518 43.2924 16.1049 44.6429L8.03571 64.6429V21.4286H29.0737L42.4219 34.1965H76.3393V42.4107Z" fill="#FDFD96"/>
<path d="M57.3892 56.6503H59.1133C59.2488 56.6503 59.3596 56.5394 59.3596 56.404C59.3596 55.5327 59.5413 54.766 59.8861 54.141C60.2124 53.5437 60.6866 53.0696 61.2839 52.7433C61.9119 52.4015 62.6755 52.2168 63.5468 52.2168H64.0394C64.9107 52.2168 65.6773 52.3984 66.3023 52.7433C66.8996 53.0696 67.3738 53.5437 67.7001 54.141C68.0419 54.7691 68.2266 55.5327 68.2266 56.404C68.2266 56.5394 68.3374 56.6503 68.4729 56.6503H70.197C70.3325 56.6503 70.4434 56.5394 70.4434 56.404C70.4434 55.1724 70.1724 54.0425 69.6459 53.0758C69.1226 52.1121 68.3312 51.3208 67.3676 50.7974C66.4009 50.271 65.2709 50 64.0394 50H63.5468C62.3153 50 61.1853 50.271 60.2186 50.7974C59.255 51.3208 58.4636 52.1121 57.9403 53.0758C57.4138 54.0425 57.1429 55.1724 57.1429 56.404C57.1429 56.5394 57.2537 56.6503 57.3892 56.6503Z" fill="#1F191F"/>
<path d="M76.9704 63.7931H72.4138V60.7143C74.7783 60.7143 76.6934 58.7993 76.6934 56.4348C76.6934 56.2993 76.5825 56.1885 76.447 56.1885H74.5998C74.4643 56.1885 74.3535 56.2993 74.3535 56.4348C74.3535 56.9492 74.1491 57.4425 73.7853 57.8063C73.4216 58.1701 72.9282 58.3744 72.4138 58.3744H55.1724C54.658 58.3744 54.1646 58.1701 53.8009 57.8063C53.4371 57.4425 53.2328 56.9492 53.2328 56.4348C53.2328 56.2993 53.1219 56.1885 52.9865 56.1885H51.1392C51.0037 56.1885 50.8929 56.2993 50.8929 56.4348C50.8929 58.7993 52.8079 60.7143 55.1724 60.7143V63.7931H50.6158C50.4803 63.7931 50.3695 63.904 50.3695 64.0394V65.7636C50.3695 65.899 50.4803 66.0099 50.6158 66.0099H55.1724V68.9655C55.1724 69.1657 55.1786 69.3658 55.194 69.5598C53.0819 70.4619 51.601 72.5585 51.601 75C51.601 75.1355 51.7118 75.2463 51.8473 75.2463H53.5714C53.7069 75.2463 53.8177 75.1355 53.8177 75C53.8177 73.6392 54.5536 72.4477 55.6527 71.8073C55.8352 72.332 56.0694 72.8374 56.3516 73.3159C57.0998 74.5936 58.1681 75.662 59.4458 76.4101C60.7235 77.1583 62.2075 77.5862 63.7931 77.5862C65.3787 77.5862 66.8658 77.1583 68.1435 76.4101C69.9128 75.3732 71.2569 73.7422 71.9366 71.8073C72.4944 72.1329 72.957 72.5991 73.2785 73.1593C73.5999 73.7195 73.7688 74.3542 73.7685 75C73.7685 75.1355 73.8793 75.2463 74.0148 75.2463H75.7389C75.8744 75.2463 75.9852 75.1355 75.9852 75C75.9852 72.5585 74.5043 70.4619 72.3922 69.5598C72.4046 69.3627 72.4138 69.1657 72.4138 68.9655V66.0099H76.9704C77.1059 66.0099 77.2168 65.899 77.2168 65.7636V64.0394C77.2168 63.904 77.1059 63.7931 76.9704 63.7931ZM70.0739 68.9655C70.0739 70.0986 69.7753 71.1823 69.218 72.1337C68.673 73.0665 67.8941 73.8455 66.9612 74.3904C66.0099 74.9477 64.9261 75.2463 63.7931 75.2463C62.6601 75.2463 61.5764 74.9477 60.625 74.3904C59.6921 73.8455 58.9132 73.0665 58.3682 72.1337C57.8055 71.1729 57.51 70.079 57.5123 68.9655V60.7143H70.0739V68.9655Z" fill="#1F191F"/>
</g>
<defs>
<clipPath id="clip0_3_16273">
<rect width="100" height="100" fill="white"/>
</clipPath>
</defs>
</svg>
